<svg xmlns="http://www.w3.org/2000/svg" width="20" height="25" viewBox="0 0 20 25">
    <path fill="#395060" fill-rule="nonzero" d="M16.704 13.267c-.03-3.17 2.537-4.69 2.652-4.766-1.443-2.152-3.69-2.447-4.492-2.481-1.912-.198-3.732 1.148-4.703 1.148-.968 0-2.466-1.119-4.052-1.09-2.085.032-4.007 1.236-5.08 3.139-2.167 3.831-.555 9.506 1.556 12.613 1.031 1.521 2.262 3.23 3.877 3.168 1.555-.063 2.143-1.025 4.023-1.025s2.41 1.025 4.055.994c1.674-.032 2.734-1.55 3.759-3.076 1.184-1.764 1.672-3.472 1.701-3.56-.037-.017-3.264-1.277-3.296-5.064zM13.69 3.46c.861-.917 1.442-2.19 1.284-3.459-1.24.044-2.744.725-3.633 1.64-.799.812-1.498 2.108-1.31 3.352 1.384.094 2.797-.618 3.66-1.533z"/>
</svg>
