<svg xmlns="http://www.w3.org/2000/svg" width="20" height="20" viewBox="0 0 20 20">
    <g fill="none" fill-rule="evenodd" stroke="#0077B7" stroke-linecap="round" stroke-linejoin="round" stroke-width="1.3">
        <path d="M15.721 3.377H3.962A3.207 3.207 0 0 0 .765 6.573v9.18a3.206 3.206 0 0 0 3.197 3.197h11.76a3.205 3.205 0 0 0 3.196-3.197v-9.18a3.206 3.206 0 0 0-3.197-3.196z"/>
        <path d="M14.212 3.377v-.57A2.048 2.048 0 0 0 12.17.766H7.513a2.048 2.048 0 0 0-2.042 2.043v.569M10.987 13.27h-2.29M.765 7.557a3.21 3.21 0 0 0 3.196 3.205h11.76a3.21 3.21 0 0 0 3.197-3.205"/>
    </g>
</svg>
