<svg xmlns="http://www.w3.org/2000/svg" width="30" height="32" viewBox="0 0 30 32">
    <defs>
        <linearGradient id="a" x1="50%" x2="50%" y1="0%" y2="203.461%">
            <stop offset="0%" stop-color="#62C9E8"/>
            <stop offset="100%" stop-color="#39C"/>
        </linearGradient>
        <linearGradient id="b" x1="50%" x2="50%" y1="-103.082%" y2="100%">
            <stop offset="0%" stop-color="#62C9E8"/>
            <stop offset="100%" stop-color="#39C"/>
        </linearGradient>
    </defs>
    <g fill="none" fill-rule="evenodd">
        <circle cx="15.789" cy="18.158" r="10.263" stroke="#EAAF47"/>
        <path fill="#FFF" d="M11.053 0h9.474v11.842h-9.474z"/>
        <path fill="url(#a)" fill-rule="nonzero" d="M4.68 5.824c1.137 0 2.06-1.127 2.06-2.517S6.435.789 4.68.789c-1.757 0-2.06 1.127-2.06 2.518 0 1.39.922 2.517 2.06 2.517z" transform="translate(11.053)"/>
        <path fill="#FFF" fill-rule="nonzero" d="M19.618 9.579c-.038-2.407-.06-3.092-2.466-3.526h-2.84c-2.379.429-2.42 1.104-2.464 3.448-.004.191-.005.201-.006.179v.253s.573 1.154 3.89 1.154c3.318 0 3.89-1.154 3.89-1.154v-.187c0 .013-.002-.013-.004-.167z"/>
        <path fill="url(#b)" fill-rule="nonzero" d="M8.565 9.579c-.038-2.407-.06-3.092-2.465-3.526 0 0-.414.335-1.365.335-.634 0-1.125-.112-1.475-.335C.88 6.482.84 7.157.795 9.5c-.003.191-.005.201-.006.179v.253s.573 1.154 3.89 1.154c3.318 0 3.89-1.154 3.89-1.154v-.187l-.004-.167z" transform="translate(11.053)"/>
        <g>
            <path fill="#FFF" d="M11.053 19.737h9.474v11.842h-9.474z"/>
            <path fill="url(#a)" fill-rule="nonzero" d="M4.68 5.824c1.137 0 2.06-1.127 2.06-2.517S6.435.789 4.68.789c-1.757 0-2.06 1.127-2.06 2.518 0 1.39.922 2.517 2.06 2.517z" transform="translate(11.053 19.737)"/>
            <path fill="#FFF" fill-rule="nonzero" d="M19.618 29.316c-.038-2.407-.06-3.092-2.466-3.527h-2.84c-2.379.43-2.42 1.105-2.464 3.449-.004.19-.005.2-.006.179v.253s.573 1.154 3.89 1.154c3.318 0 3.89-1.154 3.89-1.154v-.187c0 .013-.002-.013-.004-.167z"/>
            <path fill="url(#b)" fill-rule="nonzero" d="M8.565 9.579c-.038-2.407-.06-3.092-2.465-3.526 0 0-.414.335-1.365.335-.634 0-1.125-.112-1.475-.335C.88 6.482.84 7.157.795 9.5c-.003.191-.005.201-.006.179v.253s.573 1.154 3.89 1.154c3.318 0 3.89-1.154 3.89-1.154v-.187l-.004-.167z" transform="translate(11.053 19.737)"/>
        </g>
        <g>
            <path fill="#FFF" d="M0 11.842h9.474v11.842H0z"/>
            <path fill="url(#a)" fill-rule="nonzero" d="M5.47 5.824c1.137 0 2.059-1.127 2.059-2.517S7.226.789 5.469.789c-1.757 0-2.06 1.127-2.06 2.518 0 1.39.923 2.517 2.06 2.517z" transform="translate(0 11.842)"/>
            <path fill="#FFF" fill-rule="nonzero" d="M9.355 21.421c-.038-2.407-.06-3.092-2.466-3.526H4.05c-2.38.43-2.42 1.105-2.464 3.448-.004.191-.005.201-.006.179v.253s.573 1.154 3.89 1.154 3.89-1.154 3.89-1.154v-.187c0 .014-.002-.013-.004-.167z"/>
            <path fill="url(#b)" fill-rule="nonzero" d="M9.355 9.579c-.038-2.407-.06-3.092-2.466-3.526 0 0-.414.335-1.364.335-.634 0-1.126-.112-1.476-.335-2.38.429-2.42 1.104-2.464 3.448-.004.191-.005.201-.006.179v.253s.573 1.154 3.89 1.154 3.89-1.154 3.89-1.154v-.187c0 .013-.002-.013-.004-.167z" transform="translate(0 11.842)"/>
        </g>
        <g>
            <path fill="#FFF" d="M20.526 11.842H30v11.842h-9.474z"/>
            <path fill="url(#a)" fill-rule="nonzero" d="M4.68 5.824c1.137 0 2.06-1.127 2.06-2.517S6.435.789 4.68.789c-1.757 0-2.06 1.127-2.06 2.518 0 1.39.922 2.517 2.06 2.517z" transform="translate(20.526 11.842)"/>
            <path fill="#FFF" fill-rule="nonzero" d="M29.092 21.421c-.038-2.407-.06-3.092-2.466-3.526h-2.84c-2.38.43-2.42 1.105-2.464 3.448-.004.191-.006.201-.006.179v.253s.573 1.154 3.89 1.154 3.89-1.154 3.89-1.154v-.187c0 .014-.002-.013-.004-.167z"/>
            <path fill="url(#b)" fill-rule="nonzero" d="M8.565 9.579c-.038-2.407-.06-3.092-2.465-3.526 0 0-.414.335-1.365.335-.634 0-1.125-.112-1.475-.335C.88 6.482.84 7.157.795 9.5c-.003.191-.005.201-.006.179v.253s.573 1.154 3.89 1.154c3.318 0 3.89-1.154 3.89-1.154v-.187l-.004-.167z" transform="translate(20.526 11.842)"/>
        </g>
    </g>
</svg>
