<svg xmlns="http://www.w3.org/2000/svg" width="27" height="34" viewBox="0 0 27 34">
    <defs>
        <linearGradient id="a" x1="50%" x2="50%" y1="0%" y2="100%">
            <stop offset="0%" stop-color="#62C9E8"/>
            <stop offset="100%" stop-color="#39C"/>
        </linearGradient>
        <linearGradient id="b" x1="50%" x2="50%" y1="0%" y2="100%">
            <stop offset="0%" stop-color="#F6D87D"/>
            <stop offset="100%" stop-color="#EAAF47"/>
        </linearGradient>
    </defs>
    <g fill="none" fill-rule="evenodd">
        <path fill="url(#a)" fill-rule="nonzero" d="M14.62.655L5.512 10.676h7.059v13.815c0 2.451-.896 3.634-3.425 5.417-1.687 1.189-4.402 2.355-8.146 3.5 9.835 0 18.63-2.193 18.63-11.081v-11.65h7.058L17.58.654a2 2 0 0 0-2.96 0z"/>
        <path fill="url(#b)" d="M8.138 26.288c-.646.725-1.58 1.152-2.8 1.28v1.86H3.78v-1.85C1.745 27.369.486 26.185 0 24.029l2.406-.627c.223 1.356.961 2.033 2.214 2.033.586 0 1.019-.145 1.295-.435.276-.29.414-.64.414-1.051 0-.425-.138-.748-.414-.966-.276-.22-.89-.497-1.842-.834-.855-.297-1.524-.589-2.005-.88a3.312 3.312 0 0 1-1.173-1.217c-.3-.523-.45-1.132-.45-1.825 0-.91.269-1.73.805-2.458.536-.727 1.38-1.171 2.531-1.333V13h1.556v1.436c1.74.208 2.866 1.192 3.377 2.952l-2.143.879c-.419-1.207-1.064-1.81-1.94-1.81-.439 0-.792.135-1.057.404-.266.27-.4.597-.4.98 0 .392.13.692.386.902.255.209.805.467 1.646.777.924.337 1.65.656 2.174.956.526.3.945.715 1.259 1.243.313.53.47 1.147.47 1.855 0 1.086-.324 1.99-.97 2.714z"/>
    </g>
</svg>
