<svg xmlns="http://www.w3.org/2000/svg" xmlns:xlink="http://www.w3.org/1999/xlink" width="91" height="85" viewBox="0 0 91 85">
    <defs>
        <radialGradient id="a" r="51.001%" fx="50%" fy="50%">
            <stop offset="0%" stop-color="#349ACC"/>
            <stop offset="100%" stop-color="#61C8E7"/>
        </radialGradient>
        <path id="b" d="M27.475 48.514l26.623-6.07L65.12 70.45c7.453-5.024 12.761-13.023 15.925-23.997C85.79 29.99 73.036 12.31 58.76 4.54 44.484-3.227 18.927-.498 5.87 20.298c-13.06 20.796 1.64 50.523 14.12 56.03 8.32 3.671 14.652 4.066 18.993 1.185l-11.508-29z"/>
        <radialGradient id="c" r="78.586%" fx="50%" fy="50%" gradientTransform="matrix(0 1 -.99532 0 .998 0)">
            <stop offset="0%" stop-color="#EAAF47"/>
            <stop offset="100%" stop-color="#FFE187"/>
        </radialGradient>
        <radialGradient id="e" r="55.138%" fx="50%" fy="50%" gradientTransform="matrix(0 1 -.99532 0 .998 0)">
            <stop offset="0%" stop-color="#FFE187"/>
            <stop offset="100%" stop-color="#F6D87D"/>
        </radialGradient>
    </defs>
    <g fill="none" fill-rule="evenodd">
        <g transform="translate(-4 -4)">
            <circle cx="40.262" cy="40.262" r="14.024" fill="url(#a)"/>
            <mask id="d" fill="#fff">
                <use xlink:href="#b"/>
            </mask>
            <ellipse cx="40.629" cy="40.784" stroke="url(#c)" stroke-width="8" mask="url(#d)" rx="22.76" ry="22.654"/>
            <ellipse cx="40.629" cy="40.784" stroke="url(#e)" stroke-width="4" mask="url(#d)" rx="34.141" ry="33.981"/>
        </g>
        <path fill="#FDEFD2" d="M57.282 84.888c-.73-9.597 1.066-14.396 5.387-14.396 3.235 0 5.316 1.237 6.243 3.71 1.022-2.233 2.874-3.35 5.557-3.35 4.023 0 5.702 4.366 5.702 4.366s2.142-2.801 5.569-2.505c3.427.296 5.26 4.951 5.26 4.951v7.224H57.282z"/>
        <path fill="#FDEFD2" d="M34.205 34.184a6.82 6.82 0 0 1 8.645 4.16l16.59 46.573-12.95.057L30.245 42.68a6.515 6.515 0 0 1 3.96-8.496z"/>
        <path fill="#FFFEFF" d="M34.778 35.556a5.344 5.344 0 0 1 6.795 3.32l1.29 3.763a5.358 5.358 0 0 1-3.324 6.804 5.344 5.344 0 0 1-6.795-3.32l-1.29-3.763a5.358 5.358 0 0 1 3.324-6.804z"/>
        <path stroke="#F1E3C6" stroke-linecap="round" d="M40.485 62.126l7.083-2.525M41.659 65.058l7.163-2.421"/>
    </g>
</svg>
