<svg xmlns="http://www.w3.org/2000/svg" width="89" height="85" viewBox="0 0 89 85">
    <defs>
        <linearGradient id="a" x1="50%" x2="50%" y1="0%" y2="100%">
            <stop offset="0%" stop-color="#B9ECF2"/>
            <stop offset="100%" stop-color="#83D4E1"/>
        </linearGradient>
        <linearGradient id="b" x1="50%" x2="50%" y1="0%" y2="100%">
            <stop offset="0%" stop-color="#62C9E8"/>
            <stop offset="100%" stop-color="#39C"/>
        </linearGradient>
        <linearGradient id="c" x1="50%" x2="50%" y1="0%" y2="100%">
            <stop offset="0%" stop-color="#F6D87D"/>
            <stop offset="100%" stop-color="#EAAF47"/>
        </linearGradient>
    </defs>
    <g fill="none" fill-rule="evenodd">
        <path fill="#FDEFD2" d="M68.731 77c.936-8.063-7.654-12.92-7.654-19.072 0-6.153-.727-7.516 2.284-7.516 2.008 0 3.197 2.66 3.569 7.98-1.026-11.28-.425-16.92 1.801-16.92 3.413 0 2.979 8.358 3.515 8.358.537 0-2.016-11.93 2.42-11.93 4.438 0 2.482 11.93 3.034 11.93.551 0-1.061-9.296 2.414-9.296 3.476 0 2.194 9.296 2.71 9.296.514 0-.523-5.45 2.871-5.45 3.014 0 3.289 10.684 1.655 17.163-1.633 6.48-3.918 6.102-3.4 14.91L68.73 77z"/>
        <path fill="url(#a)" d="M4.218 36.144h21.618V48H4.218z" transform="translate(61 37)"/>
        <path fill="#FDEFD2" d="M40.731 40c.936-8.063-7.654-12.92-7.654-19.072 0-6.153-.727-7.516 2.284-7.516 2.008 0 3.197 2.66 3.569 7.98-1.026-11.28-.425-16.92 1.801-16.92 3.413 0 2.979 8.358 3.515 8.358.537 0-2.016-11.93 2.42-11.93 4.438 0 2.482 11.93 3.034 11.93.551 0-1.061-9.296 2.414-9.296 3.476 0 2.194 9.296 2.71 9.296.514 0-.523-5.45 2.871-5.45 3.014 0 3.289 10.684 1.655 17.163-1.633 6.48-3.918 6.102-3.4 14.91L40.73 40z"/>
        <path fill="url(#b)" d="M4.148 36.321h21.259V85H4.148z" transform="translate(33)"/>
        <g>
            <path fill="#FDEFD2" d="M7.731 66.099C8.667 58.036.077 53.179.077 47.027c0-6.153-.727-7.516 2.284-7.516 2.008 0 3.197 2.66 3.569 7.98-1.026-11.28-.425-16.92 1.801-16.92 3.413 0 2.979 8.358 3.515 8.358.537 0-2.016-11.929 2.42-11.929 4.438 0 2.482 11.929 3.034 11.929.551 0-1.061-9.295 2.414-9.295 3.476 0 2.194 9.295 2.71 9.295.514 0-.523-5.45 2.871-5.45 3.014 0 3.289 10.684 1.655 17.164-1.633 6.479-3.918 6.101-3.4 14.91l-15.219.546z"/>
            <path fill="url(#c)" d="M4.218 35.581h21.618V58H4.218z" transform="translate(0 27)"/>
        </g>
    </g>
</svg>
