<svg xmlns="http://www.w3.org/2000/svg" width="63" height="40" viewBox="0 0 63 40">
    <defs>
        <linearGradient id="a" x1="50%" x2="50%" y1="0%" y2="100%">
            <stop offset="0%" stop-color="#F6D87D"/>
            <stop offset="100%" stop-color="#EAAF47"/>
        </linearGradient>
        <linearGradient id="b" x1="50%" x2="50%" y1="0%" y2="118.815%">
            <stop offset="0%" stop-color="#62C9E8"/>
            <stop offset="100%" stop-color="#39C"/>
        </linearGradient>
        <linearGradient id="c" x1="50%" x2="50%" y1="649.211%" y2="0%">
            <stop offset="0%" stop-color="#62C9E8"/>
            <stop offset="100%" stop-color="#39C"/>
        </linearGradient>
    </defs>
    <g fill="none" fill-rule="evenodd">
        <path fill="#39C" d="M31.522 39.98C14.347 39.98-.045 35.747.42 30.875.883 26 14.347 21.767 31.522 21.767s30.333 4.422 30.74 9.107c.408 4.685-13.565 9.107-30.74 9.107zm-.707-2.31c12.882 0 25.657-3.023 25.657-7.316 0-4.294-12.775-7.317-25.657-7.317-12.88 0-24.497 3.023-24.497 7.317 0 4.293 11.616 7.316 24.497 7.316z"/>
        <path fill="#FFF" d="M57.443 24.935l-8.34 1.858-26.338 1.414-2.434-8.872 21.176-6.864z"/>
        <path fill="url(#a)" d="M37.046 26.695c-1.056 1.184-2.58 1.881-4.574 2.09v3.036h-2.54v-3.02c-3.324-.34-5.38-2.273-6.174-5.794l3.93-1.024c.363 2.213 1.568 3.319 3.614 3.319.956 0 1.663-.236 2.113-.71a2.4 2.4 0 0 0 .676-1.716c0-.694-.225-1.22-.676-1.576-.45-.36-1.453-.812-3.007-1.362-1.396-.485-2.488-.962-3.274-1.438-.785-.472-1.424-1.134-1.914-1.986-.49-.854-.736-1.849-.736-2.98 0-1.486.44-2.824 1.315-4.013.874-1.187 2.252-1.912 4.133-2.177V5h2.54v2.344c2.84.34 4.679 1.946 5.514 4.82l-3.5 1.435c-.683-1.97-1.736-2.954-3.166-2.954-.718 0-1.294.22-1.726.66-.435.44-.652.974-.652 1.6 0 .639.21 1.129.628 1.472.417.34 1.315.762 2.688 1.268 1.509.55 2.692 1.071 3.549 1.56a5.578 5.578 0 0 1 2.056 2.03c.51.865.767 1.874.767 3.029 0 1.773-.529 3.25-1.584 4.431z"/>
        <path fill="url(#b)" d="M0 0h4.082v20.666H0z" transform="translate(49.68 .141)"/>
        <path fill="url(#c)" d="M2.04 20.666l2.042 3.824H0z" transform="matrix(1 0 0 -1 49.68 45.297)"/>
    </g>
</svg>
