<svg xmlns="http://www.w3.org/2000/svg" xmlns:xlink="http://www.w3.org/1999/xlink" width="409" height="224" viewBox="0 0 409 224">
    <defs>
        <path id="a" d="M13.121 27.648h13.12V0H0v27.648z"/>
    </defs>
    <g fill="none" fill-rule="evenodd">
        <path fill="#6F889B" d="M201.214 139.48c.986-1.975 2.587-1.972 3.572 0L247 224h-88l42.214-84.52z"/>
        <g transform="rotate(3 83.935 125.783)">
            <rect width="41.28" height="41.059" y="83.183" fill="#7ED321" rx="14.354"/>
            <g fill="#00A368">
                <path d="M35.573 113.556c-.174-.786-.708-1.217-1.517-1.217-1.782 0-3.565-.006-5.348.005-.28 0-.483-.071-.682-.274-1.23-1.248-2.474-2.48-3.71-3.726a1.339 1.339 0 0 0-1.008-.409c-4.623.002-9.245.002-13.867 0-.67 0-1.07.298-1.265.928a.484.484 0 0 1-.07.106v3.237a.15.15 0 0 1 .037.039c.337.857.557 1.004 1.5 1.004 5.054 0 10.107-.002 15.158-.005a.68.68 0 0 1 .542.22c.419.439.854.858 1.28 1.288.296.303.707.47 1.134.462h6.237c.868 0 1.385-.408 1.583-1.244a.462.462 0 0 1 .065-.112v-.16a.684.684 0 0 1-.07-.142"/>
                <path d="M24.435 114.035c-5.044.007-10.088.009-15.132.006a1.88 1.88 0 0 1-1.195-.397v1.592c.125-.008.25-.014.374-.014 5.698 0 11.396.003 17.093.008h.298a.38.38 0 0 1 .04-.096c-.306-.284-.621-.564-.914-.86a.727.727 0 0 0-.564-.239M16.101 107.157c.144 0 .292.017.355-.163.272-.771.807-1.342 1.431-1.85.546-.444.96-.97.753-1.755l.08-.024c.149.134.31.256.444.403a5.847 5.847 0 0 0 2.689 1.71c.971.297 1.905.714 2.863 1.06.699.254 1.344-.048 1.56-.7.198-.598-.123-1.194-.793-1.448-1.144-.434-2.294-.853-3.433-1.297a2.289 2.289 0 0 1-.7-.425c-.998-.916-1.975-1.851-2.971-2.77-.18-.165-.384-.343-.61-.416-.876-.286-1.777-.478-2.708-.456-.671.017-1.158.28-1.427.948-.935 2.331-1.904 4.657-2.858 6.978-.021.07-.035.14-.04.212h.904c1.487 0 2.975-.008 4.461-.007M29.986 111.232c1.882.015 3.42-1.478 3.436-3.335v-.008c.023-1.939-1.667-3.42-3.38-3.357-1.721-.071-3.409 1.372-3.413 3.327-.004 1.84 1.519 3.37 3.357 3.373M18.671 98.76c1.809.005 3.279-1.438 3.284-3.223.004-1.785-1.458-3.235-3.266-3.24-.115 0-.23.006-.342.017-.356-.318-.923-.497-1.374-.418-.83.145-1.32.611-1.472 1.398-.051.265.032.591.2.869a3.336 3.336 0 0 0-.29 1.344c-.02 1.883 1.476 3.237 3.26 3.253"/>
            </g>
            <rect width="41.28" height="41.059" x="52.694" y="83.183" fill="#86ADB3" rx="14.354"/>
            <g transform="translate(60.222 89.52)">
                <mask id="b" fill="#fff">
                    <use xlink:href="#a"/>
                </mask>
                <path fill="#FFF" d="M22.31 15.661l-1.357-1.823a.772.772 0 0 0-1.39.457v11.823H6.68V14.295a.767.767 0 0 0-.529-.73.775.775 0 0 0-.861.273L3.932 15.66l-2.12-2.112 2.29-2.71a7.21 7.21 0 0 1 4.813-2.521 4.28 4.28 0 0 0 4.198 3.467 4.28 4.28 0 0 0 4.198-3.467 7.21 7.21 0 0 1 4.815 2.52l2.295 2.711-2.11 2.112zm-9.186-8.503l2.421 1.628a2.743 2.743 0 0 1-2.42 1.459 2.743 2.743 0 0 1-2.421-1.459l2.42-1.628zm12.938 5.94l-2.748-3.25A8.724 8.724 0 0 0 16.63 6.75a.765.765 0 0 0-.698.452l-2.039-1.377v-.931A2.507 2.507 0 0 0 13.124 0a2.516 2.516 0 0 0-2.513 2.51c0 .424.343.767.769.767a.767.767 0 0 0 .768-.768c0-.533.437-.968.97-.968.535 0 .971.435.971.968a.972.972 0 0 1-.97.97.767.767 0 0 0-.769.767v1.579l-2.039 1.371a.765.765 0 0 0-.698-.451A8.74 8.74 0 0 0 2.93 9.842l-2.748 3.25a.77.77 0 0 0 .044 1.04l3.25 3.244a.768.768 0 0 0 1.16-.087l.502-.675V26.88c0 .425.344.768.769.768h14.42a.767.767 0 0 0 .77-.768V16.62l.5.674a.766.766 0 0 0 1.162.087l3.25-3.244a.759.759 0 0 0 .054-1.04z" mask="url(#b)" opacity=".69"/>
            </g>
            <rect width="41.28" height="41.059" x="155.766" y="83.183" fill="#A770E6" rx="14.354"/>
            <g fill="#FF85E5" opacity=".693">
                <path d="M186.505 115.164h-13.411c-1.41 0-2.563-.925-2.583-2.073l1.474-16.44h2.544v2.258a.7.7 0 0 0 .705.697.7.7 0 0 0 .705-.697V96.65h7.708v2.258a.7.7 0 0 0 .705.697.7.7 0 0 0 .705-.697V96.65h2.544l1.473 16.44c-.006 1.148-1.16 2.073-2.57 2.073m-6.702-23.673c2.109 0 3.826 1.686 3.851 3.766h-7.708c.026-2.08 1.743-3.766 3.857-3.766m10.688 21.511l-1.537-17.111a.702.702 0 0 0-.705-.634h-3.191c-.026-2.853-2.377-5.161-5.26-5.161-2.884 0-5.236 2.308-5.262 5.16h-3.19a.707.707 0 0 0-.705.635l-1.538 17.111v.064c0 1.927 1.788 3.5 3.992 3.5h13.41c2.199 0 3.993-1.567 3.993-3.5 0-.026 0-.045-.007-.064M167.461 101.267h-4.83a.7.7 0 0 0-.706.697.7.7 0 0 0 .705.698h4.831a.7.7 0 0 0 .705-.698.7.7 0 0 0-.705-.697M167.461 104.665h-7.516a.7.7 0 0 0-.704.698.7.7 0 0 0 .704.697h7.516a.7.7 0 0 0 .705-.697.7.7 0 0 0-.705-.698M167.461 108.063h-4.83a.7.7 0 0 0-.706.698.7.7 0 0 0 .705.697h4.831a.7.7 0 0 0 .705-.697.7.7 0 0 0-.705-.698"/>
            </g>
            <rect width="41.28" height="41.059" x="112.916" y="83.183" fill="#E37E68" rx="14.354"/>
            <path fill="#FFBEB0" d="M134.766 114.853h-10.058v-5.522c0-2.121.866-4.055 2.323-5.203h5.412c1.457 1.147 2.323 3.082 2.323 5.203v5.522zm-1.856 1.511h-6.349c-.6 0-1.106-.33-1.116-.723h8.58c-.01.393-.516.723-1.115.723zm-2.297-23.474l.785 6.252-.783.098-.785-6.252.783-.098zm.893 7.777a.398.398 0 0 1 0 .56.41.41 0 0 1-.28.115.421.421 0 0 1-.28-.114.416.416 0 0 1-.115-.28c0-.103.044-.206.114-.28a.415.415 0 0 1 .561 0zm1.818 3.183l-1.851-14.33H128l-1.851 14.33c-1.406 1.316-2.232 3.314-2.232 5.481v6.31h.737c.008.834.86 1.512 1.906 1.512h6.349c1.046 0 1.898-.677 1.906-1.512h.74v-6.31c0-2.167-.826-4.165-2.232-5.481z"/>
            <path fill="#FFBEB0" d="M129.737 106.98a3.335 3.335 0 0 0-3.333 3.33 3.335 3.335 0 0 0 3.333 3.329 3.335 3.335 0 0 0 3.332-3.33 3.335 3.335 0 0 0-3.332-3.328M132.044 104.974l-.474.631c.543.405.994.98 1.304 1.66l.718-.326c-.364-.801-.9-1.48-1.548-1.965M141.7 106.048a.389.389 0 0 1-.28-.118.396.396 0 0 1 0-.556.413.413 0 0 1 .56 0 .412.412 0 0 1 .114.28.4.4 0 0 1-.394.395zm-.615 7.662l-.784-.098.785-6.252.784.099-.785 6.251zm-.482-11.237v-8.918h.259l.538-3.046h-2.384l.54 3.046h.257v8.918h-3.228l1.887 14.609h3.472l1.888-14.61h-3.23zM133.198 108.072a.397.397 0 0 0 .394.394.394.394 0 0 0 .28-.118.382.382 0 0 0 .115-.276.385.385 0 0 0-.115-.28.408.408 0 0 0-.556 0 .388.388 0 0 0-.118.28"/>
            <rect width="41.28" height="41.059" x="31.551" y="43.07" fill="#F5B223" rx="14.354" transform="rotate(-8 52.19 63.6)"/>
            <g fill="#FFF63C">
                <path d="M58.976 52.92a2.185 2.185 0 0 0-2.472-1.853 2.185 2.185 0 0 0-1.866 2.463 2.185 2.185 0 0 0 2.472 1.853 2.185 2.185 0 0 0 1.866-2.463"/>
                <path d="M58.047 53.05a1.25 1.25 0 0 1-1.067 1.408 1.25 1.25 0 0 1-1.413-1.059 1.25 1.25 0 0 1 1.067-1.407 1.25 1.25 0 0 1 1.413 1.059M49.46 70.765l-5.352 3.696a.99.99 0 0 0-1.46 1 .99.99 0 0 0 1.12.84.99.99 0 0 0 .845-1.116l-.002-.007 6.426-4.438 1.13 2.639a.978.978 0 0 0-.234.777.99.99 0 0 0 1.12.84.99.99 0 0 0 .845-1.116.99.99 0 0 0-.923-.847l-1.3-3.036.331-5.682.767-.279c.225.143.51.187.781.09l.03-.014v.002l2.96-1.327.193 1.373-1.916 4.232-.085 6.02 2.424.021.057-5.457 1.631-3.573.953 3.227 3.394 4.894 1.993-1.378-3.152-4.52-1.154-4.048-.85-6.043a2.087 2.087 0 0 0-2.361-1.77 2.087 2.087 0 0 0-1.783 2.353l.397 2.824-3.399 1.534.003.006a.888.888 0 0 0-.529.773l-.298.109v-.012l-.911.348a1.601 1.601 0 0 0-1.915-.715c-.348.122-.63.358-.823.665l-.753-.948-1.76 1.509-.736-.481-1.055 1.751v-.009l-2.107.296.039 1.408-1.267.483 1.346 4.138 7.34-1.032z"/>
                <path d="M43.728 66.115l-.327.542-.78.297-.019-.681zM45.353 64.55l1.314.86-2.38.909zM48.182 64.3c-.02.174-.012.35.026.523l-.867.33-.932-.61 1.17-1.002.603.76zM50.592 63.913l-1.832.7a1.007 1.007 0 0 1 .67-1.077c.438-.154.909.016 1.162.377M52.514 74.074a.405.405 0 0 1 .346-.456.405.405 0 0 1 .458.343.406.406 0 0 1-.804.113M43.574 74.923a.405.405 0 0 1 .459.343.405.405 0 0 1-.805.113.405.405 0 0 1 .346-.456"/>
            </g>
            <rect width="41.28" height="41.059" x="56.582" y=".823" fill="#83D4E1" rx="14.354" transform="rotate(2 77.222 21.352)"/>
            <g fill="#F7FAFB" opacity=".835">
                <path d="M71.248 26.043l4.607.16.102-2.941c.04-1.138-.479-1.599-1.72-1.642l-1.941-.068.417-11.958c.02-.562-.27-.835-.864-.856-.566-.02-.903.244-.922.794L70.51 21.49l-1.94-.068c-1.24-.043-1.79.38-1.83 1.518l-.102 2.942 4.607.16M82.685 13.556a.092.092 0 0 1-.006.183.092.092 0 0 1-.09-.094.092.092 0 0 1 .096-.089m-.027.766a.676.676 0 0 0 .7-.65.676.676 0 0 0-1.354-.048.676.676 0 0 0 .654.698M80.575 11.482a.113.113 0 0 1 .11.116.113.113 0 0 1-.118.109.113.113 0 0 1-.109-.117.113.113 0 0 1 .117-.108m-.035.99a.881.881 0 0 0 .913-.847.881.881 0 0 0-.851-.908.881.881 0 0 0-.913.846.881.881 0 0 0 .851.909M77.16 13.486a.795.795 0 0 1 .768.82.795.795 0 0 1-.824.764.795.795 0 0 1-.768-.82.795.795 0 0 1 .824-.764m-.082 2.349c.862.03 1.59-.644 1.62-1.503a1.564 1.564 0 0 0-1.512-1.61 1.563 1.563 0 0 0-1.619 1.501 1.564 1.564 0 0 0 1.51 1.612M71.23 26.488l-4.608-.158-1.038 5.685 5.445.19 5.446.19-.639-5.744z"/>
                <path d="M88.609 17.94a2.805 2.805 0 0 0-2.71-2.891 2.813 2.813 0 0 0-2.662 1.653 2.27 2.27 0 0 0-4.103.907l-1.708-.06a3.166 3.166 0 0 0 3.058 3.263 3.166 3.166 0 0 0 3.278-3.042h.002a2.037 2.037 0 0 1 2.109-1.956c1.124.04 2.006.98 1.967 2.099l-3.31-.116c-.075 2.16-1.902 3.856-4.073 3.78-2.171-.076-3.876-1.895-3.8-4.055l-3.365-.117-.022.622.44.018.28 2.601.28.01c2.269.08 2.697 1.48 2.656 2.64l-.103 2.942-.008.25.006.059.654 5.883 3.285.115.036.001 5.505.192 2.54-14.164.44.013.021-.623-.693-.024z"/>
                <path d="M81.315 17.685l-.036-.001-1.368-.048a1.5 1.5 0 0 1 2.94.103l-1.536-.054z"/>
            </g>
            <rect width="41.28" height="41.059" x="79.212" y="44.655" fill="#50E3C2" rx="14.354" transform="rotate(12 99.852 65.185)"/>
            <path fill="#B0FFD0" d="M111.99 54.133l.317 1.956 1.668 1.084-1.965.311-1.085 1.658-.317-1.956-1.668-1.083 1.965-.312 1.085-1.658zm-21.009-.655l.287 1.784 1.522.986L91 56.53l-.988 1.513-.287-1.784-1.522-.986 1.792-.282.987-1.513zm-5.428 7.362l.167 1.096.939.597-1.1.164-.599.933-.166-1.096-.94-.597 1.101-.164.598-.933zm28.102-.753l.167 1.096.939.597-1.1.164-.599.933-.167-1.096-.938-.597 1.1-.164.598-.933zm-6.745 11.522a1.851 1.851 0 0 1-1.432-2.193c.209-.983 1.212-1.631 2.2-1.421a1.851 1.851 0 0 1 1.432 2.193 1.851 1.851 0 0 1-2.2 1.42zm-15.773-3.353a1.851 1.851 0 0 1-1.432-2.193c.209-.983 1.213-1.63 2.2-1.42.988.21 1.642 1.21 1.433 2.192a1.851 1.851 0 0 1-2.2 1.421zm.967-6.587a16.941 16.941 0 0 1 2.676-3.97c.045-.057.123-.107.2-.157.07-.018.148-.068.211-.054.557-.114 2.181-.233 6.33.616 4.136.912 5.57 1.681 6.034 2.012a.531.531 0 0 1 .17.135c.05.077.076.116.12.224a14.63 14.63 0 0 1 .829 4.716c.011.102-.016.229-.029.292-2.75-.85-5.502-1.534-8.274-2.123a107.35 107.35 0 0 0-8.423-1.426l.156-.265zm21.47 3.503c.094-.444-.158-.828-.604-.923l-.51-.109c-.955-.203-1.854.733-1.854.733-.09.113-.213.22-.349.39-.008-.433-.036-.77-.064-1.108a14.057 14.057 0 0 0-1.038-4.362c-.423-.985-1.223-1.453-2.139-1.846-1.66-.651-3.405-1.055-5.126-1.421-1.753-.373-3.48-.707-5.261-.787-.99-.045-1.918.09-2.705.817-1.123 1.053-2.037 2.217-2.722 3.563-.163.297-.294.6-.51.985-.086-.217-.155-.364-.16-.498 0 0-.44-1.22-1.396-1.423l-.51-.109c-.446-.094-.832.155-.926.599l-.202.95c-.101.476.15.861.66.97l1.465.31.574.123c.025.038.018.07.043.108l-.211.055c-1.492.909-2.432 2.2-2.796 3.912a33.304 33.304 0 0 0-.424 3.09c-.073.814-.075 1.608.159 2.387.092.35.236.613.573.751.152.066.164.168.13.326l-.27 1.268c-.127.603.149 1.026.723 1.148l1.497.318c.637.136 1.055-.107 1.197-.773l.215-1.014c2.293.653 4.567 1.236 6.861 1.723 2.294.488 4.64.887 6.968 1.216l-.215 1.015c-.135.634.141 1.057.779 1.193l1.497.318c.574.122.998-.152 1.126-.755l.27-1.268c.027-.127.086-.247.252-.245.364.012.609-.201.829-.453.505-.655.858-1.375 1.116-2.115.343-.988.622-1.989.87-2.996.395-1.705.03-3.274-.964-4.711l-.17-.136c.038-.025.044-.057.083-.082l.574.122 1.465.312c.478.101.864-.148.997-.617l.202-.95z"/>
            <rect width="380.151" height="6.658" x="13.174" y="124.087" fill="#6F889B" rx="3"/>
            <path fill="#385061" d="M377.392 93.461c-7.844 0-14.202-6.31-14.202-14.094s6.358-14.094 14.202-14.094 14.203 6.31 14.203 14.094-6.359 14.094-14.203 14.094m28.888-14.094h-.001c-.035-15.838-12.983-28.667-28.951-28.667s-28.917 12.83-28.952 28.667v.064c0 .512.014 1.02.04 1.525.968 24.605 23.18 43.495 28.912 43.495 5.735 0 27.973-18.914 28.914-43.54.025-.49.038-.984.038-1.48v-.035-.029"/>
        </g>
    </g>
</svg>
