<svg xmlns="http://www.w3.org/2000/svg" xmlns:xlink="http://www.w3.org/1999/xlink" width="107" height="46" viewBox="0 0 107 46">
    <defs>
        <path id="a" d="M0 .175h109.944V44.9H0"/>
    </defs>
    <g fill="none" fill-rule="evenodd">
        <g transform="translate(-3)">
            <mask id="b" fill="#fff">
                <use xlink:href="#a"/>
            </mask>
            <path fill="#FFF" d="M96.797 24.797c-7.526 3.516-14.888-3.867-11.388-11.423a7.374 7.374 0 0 1 3.556-3.572c7.529-3.52 14.894 3.868 11.388 11.425a7.375 7.375 0 0 1-3.556 3.57m2.711-23.359c-12.154-4.668-23.687 4.27-23.687 15.86V43.738c0 .259.21.469.467.469h7.757c.258 0 .467-.21.467-.47V32.636c0-.194.206-.316.378-.224a16.876 16.876 0 0 0 7.992 2.011c11.55 0 20.454-11.574 15.804-23.773a15.99 15.99 0 0 0-9.178-9.211" mask="url(#b)"/>
        </g>
        <path fill="#FFF" d="M30.525 4.523V.65a.468.468 0 0 0-.467-.469h-3.65a4.43 4.43 0 0 0-.461 0H22.3a.468.468 0 0 0-.467.469v27.123a8.408 8.408 0 0 1-4.978 7.676l-.26.11a8.23 8.23 0 0 1-1.287.403l-.176.042c-.228.047-.461.08-.693.107l-.407.034c-.189.014-.377.029-.569.029l-.306.005a8.328 8.328 0 0 1-3.605-.97l-.018-.01a8.291 8.291 0 0 1-.718-.437 8.333 8.333 0 0 1-.577-.425 8.27 8.27 0 0 1-.395-.344 8.118 8.118 0 0 1-.508-.504.463.463 0 0 0-.647-.038l-.452.394-3.477 3.03L.828 38.56a.47.47 0 0 0-.045.664c.146.162.296.32.448.478.014.016.025.035.04.05a16.892 16.892 0 0 0 3.608 2.814c.034.02.067.044.102.064l.002-.004a17.187 17.187 0 0 0 8.539 2.275c2.746 0 5.51-.661 8.031-2.02.093-.05.174-.108.278-.193a17.172 17.172 0 0 0 8.683-14.278l.012-23.874v-.013M51.909.552c9.553 0 17.324 7.8 17.324 17.387 0 15.378-13.818 27.324-17.324 27.324-3.506 0-17.326-11.946-17.326-27.324C34.583 8.352 42.355.552 51.91.552zm3.571 24.245a7.375 7.375 0 0 0 3.557-3.57c3.506-7.557-3.86-14.946-11.389-11.425a7.374 7.374 0 0 0-3.556 3.572c-3.5 7.556 3.862 14.94 11.388 11.423z"/>
    </g>
</svg>
